<?xml version="1.0" encoding="UTF-8" standalone="no"?>

<svg
   width="18.623589mm"
   height="18.623589mm"
   viewBox="0 0 18.623589 18.623589"
   version="1.1"
   id="svg1"
   xml:space="preserve"
   xmlns="http://www.w3.org/2000/svg"
   xmlns:svg="http://www.w3.org/2000/svg"><defs
     id="defs1" /><g
     id="layer1"
     transform="translate(-92.98588,-84.268453)"><rect
       style="opacity:1;fill:none;fill-opacity:1;stroke:none;stroke-width:0.529167"
       id="rect2"
       width="18.62359"
       height="18.62359"
       x="92.985878"
       y="84.268448" /><path
       id="path2"
       style="opacity:1;fill:#1777fe;fill-opacity:1;stroke:none;stroke-width:0.529167"
       d="m 102.29742,85.73499 a 7.8452826,7.8452826 0 0 0 -7.845003,7.845 7.8452826,7.8452826 0 0 0 7.845003,7.84551 7.8452826,7.8452826 0 0 0 7.84551,-7.84551 7.8452826,7.8452826 0 0 0 -7.84551,-7.845 z m 0,5.18315 a 2.661792,2.661792 0 0 1 2.66185,2.66185 2.661792,2.661792 0 0 1 -2.66185,2.66185 2.661792,2.661792 0 0 1 -2.661857,-2.66185 2.661792,2.661792 0 0 1 2.661857,-2.66185 z" /></g></svg>
